<?xml version="1.0" encoding="utf-8"?>
<!-- Generator: Adobe Illustrator 25.0.0, SVG Export Plug-In . SVG Version: 6.00 Build 0)  -->
<svg version="1.1" id="Layer_1" xmlns="http://www.w3.org/2000/svg" xmlns:xlink="http://www.w3.org/1999/xlink" x="0px" y="0px"
	 viewBox="0 0 4000 4000" style="enable-background:new 0 0 4000 4000;" xml:space="preserve">
<style type="text/css">
	.st0{fill-rule:evenodd;clip-rule:evenodd;fill:#C6DFFE;}
	.st1{fill-rule:evenodd;clip-rule:evenodd;fill:#A6CDFD;}
	.st2{clip-path:url(#SVGID_2_);fill-rule:evenodd;clip-rule:evenodd;fill:#63615F;}
	.st3{clip-path:url(#SVGID_2_);fill-rule:evenodd;clip-rule:evenodd;fill:#6EA4F5;}
	.st4{fill-rule:evenodd;clip-rule:evenodd;fill:#AED0FE;}
	.st5{fill-rule:evenodd;clip-rule:evenodd;fill:#EDF3FC;}
	.st6{fill-rule:evenodd;clip-rule:evenodd;fill:#7CB2FD;}
	.st7{fill-rule:evenodd;clip-rule:evenodd;fill:#85B7FD;}
	.st8{fill-rule:evenodd;clip-rule:evenodd;fill:#ACCEFD;}
	.st9{fill-rule:evenodd;clip-rule:evenodd;fill:#C7DEFE;}
	.st10{fill-rule:evenodd;clip-rule:evenodd;fill:#3E3C3B;}
	.st11{fill-rule:evenodd;clip-rule:evenodd;fill:#63615F;}
	.st12{clip-path:url(#SVGID_4_);fill-rule:evenodd;clip-rule:evenodd;fill:#63615F;}
	
		.st13{clip-path:url(#SVGID_4_);fill-rule:evenodd;clip-rule:evenodd;fill:#63615F;stroke:#000000;stroke-width:0.61;stroke-linecap:round;stroke-linejoin:round;stroke-miterlimit:10;}
	.st14{clip-path:url(#SVGID_6_);fill-rule:evenodd;clip-rule:evenodd;fill:#464544;}
	.st15{clip-path:url(#SVGID_9_);}
	.st16{clip-path:url(#SVGID_10_);fill-rule:evenodd;clip-rule:evenodd;fill:#DDE6E5;}
	.st17{fill-rule:evenodd;clip-rule:evenodd;fill:#FBF0EB;}
	.st18{fill-rule:evenodd;clip-rule:evenodd;fill:#FDF6F3;}
	.st19{fill-rule:evenodd;clip-rule:evenodd;fill:#FEFAF8;}
	.st20{fill-rule:evenodd;clip-rule:evenodd;fill:#090909;}
	.st21{fill-rule:evenodd;clip-rule:evenodd;fill:#F6C1C4;}
	.st22{fill-rule:evenodd;clip-rule:evenodd;fill:#262625;}
	.st23{fill-rule:evenodd;clip-rule:evenodd;fill:#373635;}
	.st24{clip-path:url(#SVGID_12_);fill-rule:evenodd;clip-rule:evenodd;fill:#F3A9AD;}
	.st25{fill-rule:evenodd;clip-rule:evenodd;fill:#522A34;}
	.st26{clip-path:url(#SVGID_14_);fill-rule:evenodd;clip-rule:evenodd;fill:#89BBFD;}
	.st27{fill-rule:evenodd;clip-rule:evenodd;fill:#464544;}
	.st28{fill-rule:evenodd;clip-rule:evenodd;fill:#2A3133;}
	.st29{fill-rule:evenodd;clip-rule:evenodd;fill:#424C50;}
	.st30{clip-path:url(#SVGID_16_);fill-rule:evenodd;clip-rule:evenodd;fill:#444342;}
	.st31{fill-rule:evenodd;clip-rule:evenodd;fill:#529EFB;}
	.st32{fill-rule:evenodd;clip-rule:evenodd;fill:#FDEBF2;}
	.st33{fill-rule:evenodd;clip-rule:evenodd;fill:#2886FA;}
	.st34{fill-rule:evenodd;clip-rule:evenodd;fill:#D1CECF;}
	.st35{fill-rule:evenodd;clip-rule:evenodd;fill:#EFEEEF;}
	.st36{fill-rule:evenodd;clip-rule:evenodd;fill:#A5A0A2;}
	.st37{fill-rule:evenodd;clip-rule:evenodd;fill:#B91551;}
	.st38{fill-rule:evenodd;clip-rule:evenodd;fill:#AB134B;}
	.st39{clip-path:url(#SVGID_18_);fill-rule:evenodd;clip-rule:evenodd;fill:#EC9506;}
	.st40{fill-rule:evenodd;clip-rule:evenodd;fill:#FEF5E4;}
	.st41{clip-path:url(#SVGID_20_);fill-rule:evenodd;clip-rule:evenodd;fill:#E89306;}
</style>
<g>
	<path class="st0" d="M3474.36,2562.42c-3.89-584.78,122.25-895.39-84.52-1280.84c-38.29-71.38-116.76-118.24-188.98-163.02
		c-617.37-382.86-738.41,302.01-1132.64,243.36c-385.11-57.29-438.2-612.62-899.97-631.17c-122.36-4.92-240.22,35.18-335.34,104.21
		c-283.76,205.92-312.19,564.7-280.96,868.26c14.08,136.83,32.89,273.17,43.02,410.33c10.86,147.12,7.86,294.44,16.1,441.57
		c4.69,83.77,13.37,102.24,105.11,94.37c77.53-6.65,155.05-13.19,232.67-18.95c81.48-6.04,162.95-12.2,244.44-18.09
		c152.34-10.99,304.67-22.06,456.95-33.71c240.48-18.4,481.17-34.18,721.55-53.77"/>
	<polygon class="st1" points="3659.65,2528.06 1961.43,3386.65 247.48,2525.84 1942.99,1666.74 3659.65,2528.06 	"/>
	<polygon class="st0" points="3659.65,2632.03 3659.65,2528.06 1957.01,3386.65 1954,3481.02 3659.65,2632.03 	"/>
	<polygon class="st0" points="1958.1,3386.65 1954,3481.02 247.48,2610.71 244.46,2516.34 1958.1,3386.65 	"/>
	<g>
		<defs>
			<polygon id="SVGID_1_" points="1076.29,2754.96 1487.48,2995.18 1802.53,2812.71 1802.99,2386.22 1074.47,2261.18 
				1076.29,2754.96 			"/>
		</defs>
		<use xlink:href="#SVGID_1_"  style="overflow:visible;fill-rule:evenodd;clip-rule:evenodd;fill:#84B2F7;"/>
		<clipPath id="SVGID_2_">
			<use xlink:href="#SVGID_1_"  style="overflow:visible;"/>
		</clipPath>
		<polygon class="st2" points="1627.21,2561.62 1727.27,2497.17 1727.27,2958.18 1627.21,2958.18 1627.21,2561.62 		"/>
		<polygon class="st3" points="1013.37,2144.04 1496.91,2448.69 1490.69,2995.18 988.94,2759.83 1013.37,2144.04 		"/>
	</g>
	<polygon class="st4" points="1007.18,2219.5 1549.35,2535.35 2611.07,1944.85 2060.11,1618.72 1007.18,2194.1 1007.18,2219.5 	"/>
	<polygon class="st5" points="1007.18,2194.33 1549.35,2510.17 2611.07,1919.67 2060.11,1593.55 1007.18,2194.33 	"/>
	<polygon class="st4" points="1797.38,1854.26 1879.01,1901.81 2038.88,1812.9 1955.92,1763.8 1797.38,1850.43 1797.38,1854.26 	"/>
	<polygon class="st5" points="1796.44,1845.61 1878.08,1893.17 2037.94,1804.26 1954.98,1755.15 1796.44,1845.61 	"/>
	<path class="st6" d="M1704.01,1924.6c0.1,4.54,2.58,8.7,6.53,10.94c3.95,2.24,8.79,2.24,12.74,0
		c72.06-40.9,328.9-186.65,373.36-211.88c4.06-2.31,6.56-6.63,6.53-11.3c-0.26-42.84-1.58-255.45-2.01-325.26
		c-0.03-4.6-2.5-8.84-6.5-11.12c-3.99-2.29-8.9-2.27-12.88,0.04c-73.35,42.57-333.51,193.56-378.3,219.56
		c-4.06,2.36-6.53,6.74-6.42,11.44C1697.99,1649.4,1702.52,1856.67,1704.01,1924.6L1704.01,1924.6z"/>
	<path class="st7" d="M1975.11,1784.5c0,0,13.77,9.38,18.78,8.34l-114.84,71.38c0,0-12.6-2.71-13.47-16.48L1975.11,1784.5
		L1975.11,1784.5z"/>
	<path class="st8" d="M1714.29,1918.67c0.1,4.54,2.58,8.7,6.53,10.94c3.95,2.24,8.79,2.25,12.74,0
		c72.06-40.9,328.9-186.65,373.36-211.88c4.06-2.3,6.56-6.63,6.53-11.3c-0.26-42.84-1.58-255.45-2.01-325.26
		c-0.03-4.6-2.5-8.84-6.5-11.12c-3.99-2.28-8.9-2.27-12.88,0.04c-73.35,42.57-333.51,193.56-378.3,219.56
		c-4.06,2.36-6.53,6.74-6.42,11.44C1708.26,1643.46,1712.8,1850.73,1714.29,1918.67L1714.29,1918.67z"/>
	<path class="st9" d="M1736.76,1885.54c0.09,4.55,2.57,8.71,6.52,10.96c3.95,2.25,8.79,2.25,12.75,0.01
		c66.3-37.63,287.07-162.92,328.03-186.16c4.06-2.3,6.56-6.61,6.53-11.28c-0.17-39.26-0.95-220.71-1.22-284.55
		c-0.02-4.6-2.49-8.85-6.49-11.14c-4-2.29-8.91-2.28-12.89,0.04c-67.48,39.16-291.1,168.95-332.36,192.9
		c-4.06,2.35-6.52,6.73-6.42,11.42C1731.97,1646.56,1735.51,1823.42,1736.76,1885.54L1736.76,1885.54z"/>
	<path class="st10" d="M1825.26,1766.23c0.08,4.55,2.56,8.72,6.51,10.98c3.95,2.25,8.8,2.26,12.76,0.01
		c41.38-23.49,138.48-78.6,164.58-93.41c4.05-2.3,6.54-6.6,6.53-11.26c-0.06-24.21-0.25-100.65-0.34-138.97
		c-0.01-4.61-2.48-8.86-6.48-11.16c-4-2.3-8.91-2.29-12.9,0.03c-42.1,24.43-140.41,81.49-166.7,96.75
		c-4.05,2.35-6.51,6.71-6.43,11.39C1823.23,1654.53,1824.58,1728.97,1825.26,1766.23L1825.26,1766.23z"/>
	<path class="st11" d="M1916.23,1591.34c-1.42,1.26-1.66,3.4-0.55,4.94c1.11,1.54,3.2,2.01,4.85,1.07
		c28.36-16.09,66.86-37.95,71.21-40.42c0.27-0.15,0.52-0.34,0.75-0.55c0.01-0.01,0.01-0.01,0.02-0.02c1.54-1.42,1.77-3.78,0.52-5.47
		c-1.24-1.69-3.56-2.17-5.38-1.12c-28.68,16.65-66.62,38.66-70.74,41.05C1916.67,1590.98,1916.44,1591.14,1916.23,1591.34
		C1916.23,1591.33,1916.23,1591.33,1916.23,1591.34L1916.23,1591.34z"/>
	<path class="st11" d="M1916.23,1610.6c-1.42,1.26-1.66,3.39-0.55,4.94c1.11,1.54,3.2,2.01,4.85,1.07
		c28.36-16.09,66.86-37.95,71.21-40.42c0.27-0.15,0.52-0.34,0.75-0.55c0.01,0,0.01-0.01,0.02-0.01c1.54-1.42,1.77-3.78,0.52-5.47
		c-1.24-1.69-3.56-2.17-5.38-1.12c-28.68,16.65-66.62,38.67-70.74,41.05C1916.67,1610.24,1916.44,1610.4,1916.23,1610.6
		C1916.23,1610.59,1916.23,1610.6,1916.23,1610.6L1916.23,1610.6z"/>
	<path class="st11" d="M1916.23,1627.02c-1.42,1.26-1.66,3.39-0.55,4.94c1.11,1.54,3.2,2.01,4.85,1.07
		c28.36-16.09,66.86-37.95,71.21-40.42c0.27-0.15,0.52-0.34,0.75-0.55c0.01-0.01,0.01-0.01,0.02-0.02c1.54-1.42,1.77-3.78,0.52-5.47
		c-1.24-1.69-3.56-2.17-5.38-1.12c-28.68,16.65-66.62,38.67-70.74,41.05C1916.67,1626.66,1916.44,1626.83,1916.23,1627.02
		C1916.23,1627.02,1916.23,1627.02,1916.23,1627.02L1916.23,1627.02z"/>
	<path class="st11" d="M1866.21,1656.82c-0.79,1.44-0.53,3.24,0.64,4.39c1.16,1.16,2.96,1.41,4.39,0.61
		c10.75-5.95,25.98-14.39,30.1-16.66c0.69-0.38,1.24-0.96,1.58-1.67c0,0,0,0,0.01-0.01c0.8-1.64,0.43-3.61-0.91-4.84
		c-1.34-1.24-3.33-1.46-4.9-0.54c-10.79,6.31-25.65,15-29.48,17.24C1867.05,1655.69,1866.55,1656.2,1866.21,1656.82L1866.21,1656.82
		L1866.21,1656.82z"/>
	<path class="st11" d="M1866.21,1681.99c-0.79,1.44-0.53,3.24,0.64,4.39c1.16,1.16,2.96,1.41,4.39,0.61
		c10.75-5.95,25.98-14.39,30.1-16.66c0.69-0.38,1.24-0.96,1.58-1.67c0,0,0,0,0.01-0.01c0.8-1.64,0.43-3.61-0.91-4.84
		c-1.34-1.24-3.33-1.46-4.9-0.54c-10.79,6.31-25.65,15-29.48,17.23C1867.05,1680.86,1866.55,1681.37,1866.21,1681.99
		L1866.21,1681.99L1866.21,1681.99z"/>
	<path class="st11" d="M1956.54,1627.93c-0.79,1.44-0.53,3.23,0.64,4.39c1.16,1.16,2.96,1.41,4.4,0.61
		c10.75-5.95,25.98-14.39,30.09-16.66c0.69-0.38,1.24-0.96,1.59-1.67c0,0,0,0,0-0.01c0.8-1.64,0.43-3.61-0.91-4.84
		c-1.34-1.24-3.33-1.46-4.9-0.54c-10.79,6.31-25.65,15-29.47,17.23C1957.38,1626.8,1956.88,1627.31,1956.54,1627.93L1956.54,1627.93
		L1956.54,1627.93z"/>
	<path class="st11" d="M1956.54,1644.24c-0.79,1.44-0.53,3.23,0.64,4.39c1.16,1.16,2.96,1.41,4.4,0.61
		c10.75-5.95,25.98-14.39,30.09-16.66c0.69-0.38,1.24-0.97,1.59-1.67c0,0,0-0.01,0-0.01c0.8-1.64,0.43-3.6-0.91-4.84
		c-1.34-1.24-3.33-1.46-4.9-0.53c-10.79,6.31-25.65,15-29.47,17.23C1957.38,1643.11,1956.88,1643.62,1956.54,1644.24
		L1956.54,1644.24L1956.54,1644.24z"/>
	<g>
		<defs>
			<polygon id="SVGID_3_" points="2166.7,1833.16 2276.09,1904.63 1995.46,2077.03 1868.71,2005.68 2166.7,1833.16 			"/>
		</defs>
		<use xlink:href="#SVGID_3_"  style="overflow:visible;fill-rule:evenodd;clip-rule:evenodd;fill:#E1E9E9;"/>
		<clipPath id="SVGID_4_">
			<use xlink:href="#SVGID_3_"  style="overflow:visible;"/>
		</clipPath>
		<polygon class="st12" points="2146.16,1858.82 2163.96,1847.92 2180,1858.78 2162.31,1869.56 2146.16,1858.82 		"/>
		<polygon class="st12" points="2175.28,1876.8 2193.08,1865.9 2209.12,1876.76 2191.43,1887.54 2175.28,1876.8 		"/>
		<polygon class="st12" points="2199.79,1890.95 2217.58,1880.05 2233.62,1890.9 2215.94,1901.68 2199.79,1890.95 		"/>
		<polygon class="st12" points="2228.82,1908.98 2246.61,1898.08 2262.65,1908.94 2244.97,1919.71 2228.82,1908.98 		"/>
		<polygon class="st12" points="2116.95,1875.69 2134.74,1864.79 2150.78,1875.65 2133.1,1886.42 2116.95,1875.69 		"/>
		<polygon class="st12" points="2146.07,1893.67 2163.87,1882.77 2179.91,1893.63 2162.22,1904.4 2146.07,1893.67 		"/>
		<polygon class="st12" points="2170.57,1907.81 2188.37,1896.91 2204.41,1907.77 2186.72,1918.55 2170.57,1907.81 		"/>
		<polygon class="st12" points="2199.6,1925.85 2217.4,1914.95 2233.44,1925.8 2215.76,1936.58 2199.6,1925.85 		"/>
		<polygon class="st12" points="2087.73,1892.56 2105.53,1881.66 2121.57,1892.51 2103.88,1903.29 2087.73,1892.56 		"/>
		<polygon class="st12" points="2116.86,1910.54 2134.65,1899.64 2150.69,1910.49 2133.01,1921.27 2116.86,1910.54 		"/>
		<polygon class="st12" points="2141.36,1924.68 2159.16,1913.78 2175.19,1924.64 2157.51,1935.42 2141.36,1924.68 		"/>
		<polygon class="st12" points="2120.26,1973.26 2188.19,1931.81 2204.23,1942.67 2136.41,1983.99 2120.26,1973.26 		"/>
		<polygon class="st12" points="2058.52,1909.42 2076.32,1898.52 2092.36,1909.38 2074.67,1920.16 2058.52,1909.42 		"/>
		<polygon class="st12" points="2087.64,1927.4 2105.44,1916.5 2121.48,1927.36 2103.79,1938.14 2087.64,1927.4 		"/>
		<polygon class="st12" points="2112.15,1941.55 2129.94,1930.65 2145.98,1941.5 2128.3,1952.28 2112.15,1941.55 		"/>
		<polygon class="st12" points="2034.11,1923.52 2051.91,1912.62 2067.95,1923.47 2050.26,1934.25 2034.11,1923.52 		"/>
		<polygon class="st12" points="2063.23,1941.5 2081.03,1930.6 2097.07,1941.45 2079.38,1952.23 2063.23,1941.5 		"/>
		<polygon class="st12" points="2087.73,1955.64 2105.53,1944.74 2121.57,1955.6 2103.88,1966.37 2087.73,1955.64 		"/>
		<polygon class="st12" points="2004.9,1940.38 2022.7,1929.48 2038.73,1940.34 2021.05,1951.11 2004.9,1940.38 		"/>
		<polygon class="st12" points="2034.02,1958.36 2051.82,1947.46 2067.86,1958.32 2050.17,1969.09 2034.02,1958.36 		"/>
		<polygon class="st12" points="2058.52,1972.51 2076.32,1961.61 2092.36,1972.46 2074.67,1983.24 2058.52,1972.51 		"/>
		<polygon class="st12" points="2087.55,1990.54 2105.35,1979.64 2121.39,1990.49 2103.7,2001.27 2087.55,1990.54 		"/>
		<polygon class="st12" points="1980.49,1954.48 1998.28,1943.57 2014.32,1954.43 1996.64,1965.21 1980.49,1954.48 		"/>
		<polygon class="st12" points="2009.61,1972.45 2027.41,1961.55 2043.44,1972.41 2025.76,1983.19 2009.61,1972.45 		"/>
		<polygon class="st13" points="2034.11,1986.6 2051.91,1975.7 2067.95,1986.56 2050.26,1997.33 2034.11,1986.6 		"/>
		<polygon class="st12" points="1951.27,1971.34 1969.07,1960.44 1985.11,1971.3 1967.42,1982.08 1951.27,1971.34 		"/>
		<polygon class="st12" points="1980.4,1989.32 1998.19,1978.42 2014.23,1989.28 1996.55,2000.05 1980.4,1989.32 		"/>
		<polygon class="st12" points="2004.9,2003.47 2022.7,1992.57 2038.73,2003.42 2021.05,2014.2 2004.9,2003.47 		"/>
		<polygon class="st12" points="1922.06,1988.21 1939.86,1977.31 1955.9,1988.17 1938.21,1998.94 1922.06,1988.21 		"/>
		<polygon class="st12" points="1951.18,2006.19 1968.98,1995.29 1985.02,2006.14 1967.33,2016.92 1951.18,2006.19 		"/>
		<polygon class="st12" points="1975.69,2020.33 1993.48,2009.43 2009.52,2020.29 1991.84,2031.07 1975.69,2020.33 		"/>
		<polygon class="st12" points="2004.72,2038.37 2022.51,2027.47 2038.55,2038.32 2020.87,2049.1 2004.72,2038.37 		"/>
		<polygon class="st12" points="1897.65,2002.3 1915.45,1991.4 1931.49,2002.26 1913.8,2013.04 1897.65,2002.3 		"/>
		<polygon class="st12" points="1926.77,2020.28 1944.57,2009.38 1960.61,2020.24 1942.92,2031.02 1926.77,2020.28 		"/>
		<polygon class="st12" points="1951.27,2034.43 1969.07,2023.53 1985.11,2034.38 1967.42,2045.16 1951.27,2034.43 		"/>
		<polygon class="st12" points="1980.31,2052.46 1998.1,2041.56 2014.14,2052.42 1996.46,2063.19 1980.31,2052.46 		"/>
	</g>
	<g>
		<defs>
			<path id="SVGID_5_" d="M2251.83,1815.9c0,0-14.01,27.07,38.4,47.21c0,0,56.01,13.85,56.35-29.6c0,0-2.84-36.4-51.42-35.75
				C2246.58,1798.41,2251.83,1815.9,2251.83,1815.9L2251.83,1815.9z"/>
		</defs>
		<use xlink:href="#SVGID_5_"  style="overflow:visible;fill-rule:evenodd;clip-rule:evenodd;fill:#FFFFFF;"/>
		<clipPath id="SVGID_6_">
			<use xlink:href="#SVGID_5_"  style="overflow:visible;"/>
		</clipPath>
		<path class="st14" d="M2298.35,1853.09c0,0-12.68-35.89-48.23-30.99c0,0-7-15.37-6.98-19.6c0.02-4.23,78.99-8.94,78.99-8.94
			l31.13,28.46l-4.32,9.46C2348.95,1831.49,2329.79,1861.56,2298.35,1853.09L2298.35,1853.09z"/>
	</g>
	<g>
		<defs>
			<path id="SVGID_7_" d="M2298.35,1853.09c0,0-12.68-35.89-48.23-30.99c0,0-7-15.37-6.98-19.6c0.02-4.23,78.99-8.94,78.99-8.94
				l31.13,28.46l-4.32,9.46C2348.95,1831.49,2329.79,1861.56,2298.35,1853.09L2298.35,1853.09z"/>
		</defs>
		<defs>
			<path id="SVGID_8_" d="M2251.83,1815.9c0,0-14.01,27.07,38.4,47.21c0,0,56.01,13.85,56.35-29.6c0,0-2.84-36.4-51.42-35.75
				C2246.58,1798.41,2251.83,1815.9,2251.83,1815.9L2251.83,1815.9z"/>
		</defs>
		<clipPath id="SVGID_9_">
			<use xlink:href="#SVGID_7_"  style="overflow:visible;"/>
		</clipPath>
		<clipPath id="SVGID_10_" class="st15">
			<use xlink:href="#SVGID_8_"  style="overflow:visible;"/>
		</clipPath>
		<path class="st16" d="M2259.55,1804.33c4.2-0.79,8.52-1.48,12.36-1.6c1.46-0.05,2.8-0.01,3.9,0.26c0.29,0.07,0.55,0.16,0.8,0.25
			c0.11,0.04,0.48,0.08,0.3,0.14c-3.62,1.21-8.14,1.43-11.43,1.72c-5.85,0.51-14.1,2.11-18.97,5.47"/>
	</g>
	<polygon class="st17" points="1737.4,2269.39 1891.36,2173.44 1685.62,2048.19 1540.92,2145.58 1737.4,2269.39 	"/>
	<polygon class="st18" points="1712.41,2217.67 1866.37,2121.72 1660.63,1996.46 1515.93,2093.86 1712.41,2217.67 	"/>
	<polygon class="st19" points="1583.95,2219.52 1737.92,2123.56 1532.18,1998.31 1387.48,2095.71 1583.95,2219.52 	"/>
	<path class="st20" d="M2257.98,2573.11c0,0,12.73,29.5-3.14,46.3c-15.87,16.8-45.6,11.94-72.51,2.46
		c-26.91-9.48-85.83-14.81-114.31-39.5c-28.48-24.7,29.7-40.33,29.7-40.33s49.53-3.78,74.86-3.59L2257.98,2573.11L2257.98,2573.11z"
		/>
	<path class="st21" d="M2136.78,2043.53c0,0-57.04-76.97-76.19-79.94c0,0-7.76-4.72-1.83,4.64c5.93,9.36,13.35,17.2,13.35,17.2
		s-35.29-17.63-49.55-13.29c0,0-2.93-0.54-4.65,3.08c-1.72,3.62-6.65,1.85-5.29,4.7c0,0,30.34,21.44,35.44,28.05
		c0,0,7.57,5.11-22.04,2.18c-29.61-2.94-45.55,3.4-36.78,5.76c8.77,2.36,20.61-1.47,35.02,5.79c14.41,7.26,19.85,11.72,46.88,34.15
		c27.03,22.43,42.98,16.54,54.86,17.76C2137.89,2074.83,2136.78,2043.53,2136.78,2043.53L2136.78,2043.53z"/>
	<path class="st22" d="M2418.4,2190.86c0,0-79.36-52.62-105.04-34.97c0,0-127.4,347.56-146.7,385.79c0,0,36.61,64.33,92.35,30.11
		L2418.4,2190.86L2418.4,2190.86z"/>
	<path class="st20" d="M2057.53,2749.59c0,0,13.55,49.59-3.94,63.56c-17.49,13.97-61.46-2.01-113.21-13.35
		c-51.75-11.35-86.81-21.3-85.64-43.05c1.17-21.74-0.26-32.21,16.72-30.91c16.97,1.3,93.28,7.71,102.96,1.75L2057.53,2749.59
		L2057.53,2749.59z"/>
	<path class="st21" d="M2310.95,1927.41c0,0-35.27-46.32-55.99-53.85c-20.72-7.53-31.29-23.88-49.44-22.85
		c-18.15,1.02-35.51,16.13-27.69,14.35c7.82-1.78,25.65-10.89,35.69-3.92c10.04,6.96,13.25,6.72,14.57,10.72
		c1.32,4-4.22,6.01-9.49,5.38c-5.27-0.63-15.45,2.3-25.45,8.05c-10.01,5.75-11.98,4.21-11.98,4.21s-5.58,4.08,2.86,3.47
		c8.44-0.61,21.29-4.08,30.88-0.98c9.59,3.1,17.94,8.16,22.47,15.35c4.54,7.19,11.47,17.19,7.65,20.38
		c-3.82,3.18-15.24,6.56-27.65,4.69c-12.42-1.86-25.75-8.11-24.41-3.23c1.34,4.88,0.77,7.24,23.71,16.78
		c22.94,9.54,64.15,21.41,84.11,14.58C2320.77,1953.71,2310.95,1927.41,2310.95,1927.41L2310.95,1927.41z"/>
	<path class="st23" d="M2390.52,2262c0,0-87.62,16.79-145.88,15.67c-58.26-1.12-153.99-5.48-182.8,6.99
		c-28.81,12.47-25.43,29-27.81,44.92c-2.38,15.93-40.38,187.4-70.86,399.28c0,0,36.93,57.26,95.12,28.43
		c0,0,82.67-295.4,78.52-327.4c0,0,231.09,55.04,281.59,51.71l40.88-99.49L2390.52,2262L2390.52,2262z"/>
	<g>
		<defs>
			<path id="SVGID_11_" d="M2412.46,1649.77c0,0-25.03,34.87,3.32,145.33c6.72,26.18,18.86,33.4,35.52,26.37l8.09,53.57
				l112.63-16.34l-20.09-78.43C2551.95,1780.28,2623.64,1545.83,2412.46,1649.77L2412.46,1649.77z"/>
		</defs>
		<use xlink:href="#SVGID_11_"  style="overflow:visible;fill-rule:evenodd;clip-rule:evenodd;fill:#F6C1C4;"/>
		<clipPath id="SVGID_12_">
			<use xlink:href="#SVGID_11_"  style="overflow:visible;"/>
		</clipPath>
		<path class="st24" d="M2449.58,1822.8c0.28-0.29,3.67-0.47,4.33-0.78c3.45-1.61,6.7-3.81,9.86-5.91
			c1.08-0.72,8.96-7.43,10.08-6.13c0.91,1.06-0.19,3.87-0.49,4.94c-1.49,5.36-3.34,10.63-4.98,15.95
			c-3.68,11.91-5.65,28.58-17.1,35.96c-6.45,4.16-15.19,4.66-22.63,5.69"/>
	</g>
	<path class="st25" d="M2441.44,1727.13c-0.62-1.56,0.85-6.77,1.06-8.39c2.31-17.45,18.2-19.77,30.66-8.82
		c8.48,7.46,11.66,18.07,12.53,29.03c0.58,7.22-0.45,15.78,3.57,22.2c6.37,10.15,22.13,12.68,32.97,14.54
		c6.84,1.17,14.57,1.53,21.19-0.93c15.28-5.68,21.98-23.09,27.55-36.99c13.13-32.74,25.75-87.96-0.1-117.61
		c-19.61-22.49-55.64-26.02-83.34-24.01c-22.28,1.61-45.08,5.48-66.83-1.72c-9.85-3.26-18.22-8.44-26.75-14.17
		c-1.57-1.05-5.86-4.75-7.51-2.01c-4.57,7.59-2.32,23.89-3.13,32.46c-2.48,26.28-4.82,55.86,12.83,78.05
		c5.94,7.46,13.68,11.63,21.2,17.2c5.01,3.71,9.4,7.88,12.15,13.57c2.82,5.84,1.86,16.97,9.7,12.21"/>
	<path class="st4" d="M2354.4,1933.09l-38.02-12.42c0,0-23.96,27.45-20.8,41.74l38.26,30.63L2354.4,1933.09L2354.4,1933.09z"/>
	<g>
		<defs>
			<path id="SVGID_13_" d="M2544.43,1819.86c0,0,60.13-3.35,70.96,54.91c10.84,58.26,8.14,77.99,8.14,77.99
				s-97.52,470.11-164.25,466.3c0,0-98.39-20.97-83.65-134.92c14.74-113.94,5.05-165.99,5.05-165.99l-2.67-207.15
				C2378.01,1911,2483.74,1819.17,2544.43,1819.86L2544.43,1819.86z"/>
		</defs>
		<use xlink:href="#SVGID_13_"  style="overflow:visible;fill-rule:evenodd;clip-rule:evenodd;fill:#AED0FE;"/>
		<clipPath id="SVGID_14_">
			<use xlink:href="#SVGID_13_"  style="overflow:visible;"/>
		</clipPath>
		<path class="st26" d="M2375.21,2121.79c11.35-10.27,21.67-21.05,30.53-33.54c2.88-4.07,5.81-8.11,8.6-12.24
			c1.37-2.02,2.41-7.96,4.03-6.12c12.15,13.86,8.5,58.7,7.79,76.5c-2.78,70.32-1.46,169.35-44.55,228.41
			c-27.51,37.71-85.74,53.71-111.58,5.93"/>
	</g>
	<path class="st4" d="M2378.01,1911c0,0-65.93,44.73-114.6,238.29c0,0-108.52-105.28-115.73-109.48c0,0-38.6,8.9-38.81,37.23
		c0,0,121.95,184.02,171.14,170.36c0,0,121.36-106.91,146.67-224.38C2452.01,1905.55,2443.62,1880.47,2378.01,1911L2378.01,1911z"/>
	<path class="st27" d="M2493.2,2701.61c-148.47,0-269,51.1-269,114.05c0,62.95,120.54,114.05,269,114.05
		c148.47,0,269-51.1,269-114.05C2762.2,2752.71,2641.67,2701.61,2493.2,2701.61L2493.2,2701.61z"/>
	<path class="st28" d="M2525.19,2659.14l2.27,143.27c0,0-37.76,30.19-66.67-0.55l-0.86-150.54L2525.19,2659.14L2525.19,2659.14z"/>
	<path class="st29" d="M2539.13,2600.73l0.05,61.54c0,0-34.95,31.87-90.57,3.09l-1.39-64.44L2539.13,2600.73L2539.13,2600.73z"/>
	<g>
		<defs>
			<path id="SVGID_15_" d="M2845.22,1824.58c0,0-237.23,43.24-280.86,154.33c0,0,13.6,189.27-52.15,277.19
				s-98.38,201.16-100.94,225.18c0,0-121.45-14.17-184.91-31.76c0,0-5.93,79.72,209.86,165.68c0,0,65.65,22.82,144.78-19.84
				c79.13-42.66,201.76-110.32,224.74-137.72c22.98-27.41,142.67-510.85,65.7-619.21L2845.22,1824.58L2845.22,1824.58z"/>
		</defs>
		<use xlink:href="#SVGID_15_"  style="overflow:visible;fill-rule:evenodd;clip-rule:evenodd;fill:#62615F;"/>
		<clipPath id="SVGID_16_">
			<use xlink:href="#SVGID_15_"  style="overflow:visible;"/>
		</clipPath>
		<path class="st30" d="M2875.55,1837.88c-113.27,28.86-191.57,39.16-272.56,136.52c-15.69,18.86-5.25,88.08-5.47,109.69
			c-0.77,73.63-8.87,155.38-36.81,224.45c-13.91,34.37-31.66,66.43-43.68,101.7c-20.95,61.43-31.29,181.96-126.43,152.27
			c-38.4-11.98-70.73-39.03-96.49-69.22c-93.82-109.95,28.95-159.5,79.48-255.65c87.17-165.85,237.06-377.33,382.63-513.28"/>
	</g>
	<polygon class="st31" points="815.22,1555.48 625.48,1666.75 625.48,1966.28 815.22,1855.01 815.22,1555.48 	"/>
	<path class="st32" d="M859.69,1606.92c0,0-32.82-22.12-44.48-34.61l-181.45,109.15l75.78,131.99L859.69,1606.92L859.69,1606.92z"/>
	<polygon class="st31" points="866.17,1588.08 682.44,1695.84 682.44,1995.36 866.17,1887.61 866.17,1588.08 	"/>
	<polygon class="st33" points="682.44,1995.36 625.48,1966.28 625.48,1666.68 682.5,1695.84 682.44,1995.36 	"/>
	<polygon class="st34" points="675.53,1961.7 633.76,1939.9 633.76,1713.8 675.53,1738.22 675.53,1961.7 	"/>
	<polygon class="st35" points="668.89,1807.92 639.78,1792.49 639.91,1724.52 668.89,1740.15 668.89,1807.92 	"/>
	<polygon class="st35" points="669.48,1946.72 640.38,1931.29 640.51,1863.31 669.48,1878.94 669.48,1946.72 	"/>
	<path class="st36" d="M649.44,1908.02c5.11-1.82,11.44,2.81,14.12,10.33c2.68,7.53,0.71,15.11-4.4,16.93
		c-5.11,1.82-11.44-2.81-14.12-10.33C642.36,1917.43,644.33,1909.85,649.44,1908.02L649.44,1908.02z"/>
	<polygon class="st37" points="940.23,1593.94 750.49,1705.21 750.49,2004.74 940.23,1893.47 940.23,1593.94 	"/>
	<path class="st32" d="M984.7,1645.38c0,0-32.82-22.12-44.48-34.61l-181.45,109.15l75.78,131.99L984.7,1645.38L984.7,1645.38z"/>
	<polygon class="st37" points="991.18,1626.54 807.45,1734.3 807.45,2033.82 991.18,1926.07 991.18,1626.54 	"/>
	<polygon class="st38" points="807.45,2033.82 750.49,2004.74 750.49,1705.14 807.51,1734.3 807.45,2033.82 	"/>
	<polygon class="st34" points="800.54,2000.16 758.77,1978.36 758.77,1752.26 800.54,1776.68 800.54,2000.16 	"/>
	<polygon class="st35" points="793.89,1846.38 764.79,1830.95 764.92,1762.98 793.89,1778.6 793.89,1846.38 	"/>
	<polygon class="st35" points="794.49,1985.18 765.39,1969.74 765.51,1901.77 794.49,1917.4 794.49,1985.18 	"/>
	<path class="st36" d="M774.45,1946.48c5.11-1.82,11.44,2.81,14.12,10.33c2.68,7.53,0.71,15.11-4.4,16.93
		c-5.11,1.82-11.44-2.81-14.12-10.33C767.37,1955.89,769.34,1948.3,774.45,1946.48L774.45,1946.48z"/>
	<g>
		<defs>
			<polygon id="SVGID_17_" points="3228.65,1411.55 3228.94,1315.67 3255.26,1290.2 3389.01,1367.09 3424.77,1345.47 
				3569.19,1434.17 3571.13,1652.29 3228.65,1411.55 			"/>
		</defs>
		<use xlink:href="#SVGID_17_"  style="overflow:visible;fill-rule:evenodd;clip-rule:evenodd;fill:#F9A71F;"/>
		<clipPath id="SVGID_18_">
			<use xlink:href="#SVGID_17_"  style="overflow:visible;"/>
		</clipPath>
		<polygon class="st39" points="3228.94,1315.67 3366.52,1396.26 3420.27,1374.89 3553.72,1449.72 3556.98,1649.21 3579.21,1660.17 
			3582.99,1428.17 3411.38,1321.42 3377.87,1339.89 3251.81,1271.13 3228.94,1315.67 		"/>
	</g>
	<polygon class="st40" points="3246.73,1454.52 3253.86,1316.57 3538.43,1470.18 3545.96,1669.73 3246.73,1454.52 	"/>
	<g>
		<defs>
			<path id="SVGID_19_" d="M3218.46,1402.58l2.56,254.09l329.13,185.74l25.6-12.66l3.55-205.8l-161.06-95.93
				c0,0,2.66-28.23-11.69-39.47c-14.36-11.24-170.37-103.3-170.37-103.3L3218.46,1402.58L3218.46,1402.58z"/>
		</defs>
		<use xlink:href="#SVGID_19_"  style="overflow:visible;fill-rule:evenodd;clip-rule:evenodd;fill:#F9A71F;"/>
		<clipPath id="SVGID_20_">
			<use xlink:href="#SVGID_19_"  style="overflow:visible;"/>
		</clipPath>
		<path class="st41" d="M3215.56,1398.64c29.12,27.21,68.99,44.08,103.49,63.75c30.77,17.54,45.03,24.98,76.78,46.96
			c3.34,13.35,5.44,24.31,10.48,36.93c22.48,18.98,150.17,88.88,173.73,100.54c5.3,2.62,7.89-4.21,14.18-6.4
			c11.7-4.08-7.55-36.05-10.58-40.04c-25.92-34.07-62.54-61.06-97.05-85.68c-33.59-23.96-68.55-45.92-103.11-68.45
			c-52.69-34.34-106.29-64.39-161.64-94.07"/>
	</g>
	<polygon class="st37" points="3282.23,1412.03 3246.43,1421.24 3248.55,1550.61 3271.66,1517.03 3296.23,1555.06 3295.78,1448.56 
		3330.64,1441.31 3282.23,1412.03 	"/>
</g>
</svg>
