<?xml version='1.0' encoding='utf-8'?>
<svg xmlns:xlink="http://www.w3.org/1999/xlink" xmlns="http://www.w3.org/2000/svg" x="14910pt" y="-460pt" width="1600pt" height="1000pt" viewBox="14910 -460 1600 1000"> <g id="1"> <title>Layer 1</title> <g id="2"> <title>Group</title> <g id="3"> <title>Group</title> <defs> <title>Smart Rectangle</title> <g id="4"> <defs> <path id="5" d="M16089.7,-111.083 C16089.7,-108.874,16087.9,-107.083,16085.7,-107.083 C16085.7,-107.083,15701.6,-107.083,15701.6,-107.083 C15699.4,-107.083,15697.6,-108.874,15697.6,-111.083 C15697.6,-111.083,15697.6,-143.701,15697.6,-143.701 C15697.6,-145.91,15699.4,-147.701,15701.6,-147.701 C15701.6,-147.701,16085.7,-147.701,16085.7,-147.701 C16087.9,-147.701,16089.7,-145.91,16089.7,-143.701 C16089.7,-143.701,16089.7,-111.083,16089.7,-111.083 z"/> </defs> <use xlink:href="#5" style="fill:#001838;fill-opacity:1;fill-rule:nonzero;opacity:1;stroke:none;"/> </g> </defs> <use xlink:href="#4"/> <defs> <title>Smart Rectangle</title> <g id="6"> <defs> <path id="7" d="M16051.7,-32.4396 C16051.7,-30.2305,16049.9,-28.4396,16047.7,-28.4396 C16047.7,-28.4396,15701.6,-28.4396,15701.6,-28.4396 C15699.4,-28.4396,15697.6,-30.2305,15697.6,-32.4396 C15697.6,-32.4396,15697.6,-64.9082,15697.6,-64.9082 C15697.6,-67.1173,15699.4,-68.9082,15701.6,-68.9082 C15701.6,-68.9082,16047.7,-68.9082,16047.7,-68.9082 C16049.9,-68.9082,16051.7,-67.1173,16051.7,-64.9082 C16051.7,-64.9082,16051.7,-32.4396,16051.7,-32.4396 z"/> </defs> <use xlink:href="#7" style="fill:#001838;fill-opacity:1;fill-rule:nonzero;opacity:1;stroke:none;"/> </g> </defs> <use xlink:href="#6"/> <defs> <title>Smart Rectangle</title> <g id="8"> <defs> <path id="9" d="M16013.8,45.5446 C16013.8,47.7538,16012,49.5446,16009.8,49.5446 C16009.8,49.5446,15701.6,49.5446,15701.6,49.5446 C15699.4,49.5446,15697.6,47.7538,15697.6,45.5446 C15697.6,45.5446,15697.6,13.0761,15697.6,13.0761 C15697.6,10.8669,15699.4,9.07605,15701.6,9.07605 C15701.6,9.07605,16009.8,9.07605,16009.8,9.07605 C16012,9.07605,16013.8,10.8669,16013.8,13.0761 C16013.8,13.0761,16013.8,45.5446,16013.8,45.5446 z"/> </defs> <use xlink:href="#9" style="fill:#001838;fill-opacity:1;fill-rule:nonzero;opacity:1;stroke:none;"/> </g> </defs> <use xlink:href="#8"/> <defs> <title>Smart Rectangle</title> <g id="10"> <defs> <path id="11" d="M15975.8,126.28 C15975.8,128.489,15974,130.28,15971.8,130.28 C15971.8,130.28,15701.6,130.28,15701.6,130.28 C15699.4,130.28,15697.6,128.489,15697.6,126.28 C15697.6,126.28,15697.6,93.8114,15697.6,93.8114 C15697.6,91.6022,15699.4,89.8114,15701.6,89.8114 C15701.6,89.8114,15971.8,89.8114,15971.8,89.8114 C15974,89.8114,15975.8,91.6022,15975.8,93.8114 C15975.8,93.8114,15975.8,126.28,15975.8,126.28 z"/> </defs> <use xlink:href="#11" style="fill:#001838;fill-opacity:1;fill-rule:nonzero;opacity:1;stroke:none;"/> </g> </defs> <use xlink:href="#10"/> </g> <g id="12"> <title>Group</title> <defs> <title>Smart Rectangle</title> <g id="13"> <defs> <path id="14" d="M15643.9,100.343 C15643.9,116.912,15630.4,130.343,15613.9,130.343 C15613.9,130.343,15360.3,130.343,15360.3,130.343 C15343.8,130.343,15330.3,116.912,15330.3,100.343 C15330.3,100.343,15330.3,-117.701,15330.3,-117.701 C15330.3,-134.27,15343.8,-147.701,15360.3,-147.701 C15360.3,-147.701,15613.9,-147.701,15613.9,-147.701 C15630.4,-147.701,15643.9,-134.27,15643.9,-117.701 C15643.9,-117.701,15643.9,100.343,15643.9,100.343 z"/> </defs> <use xlink:href="#14" style="fill:#001838;fill-opacity:1;fill-rule:nonzero;opacity:1;stroke:none;"/> </g> </defs> <use xlink:href="#13"/> <defs> <title>Shape 115</title> <g id="15"> <defs> <path id="16" d="M15481.4,7.81074 C15481.4,7.81074,15474,20.5792,15474,20.5792 C15471.6,24.6883,15467.2,27.2197,15462.5,27.2197 C15457.7,27.2197,15453.3,24.6883,15451,20.5792 C15451,20.5792,15444.3,9.0518,15444.3,9.0518 C15444.3,9.0518,15444.3,9.08163,15444.3,9.08163 C15444.3,9.08163,15435.9,-5.49252,15435.9,-5.49252 C15433.2,-10.017,15428.4,-12.8042,15423.2,-12.8042 C15418,-12.8042,15413.1,-10.017,15410.5,-5.49252 C15410.5,-5.49252,15368.9,66.5559,15368.9,66.5559 C15366.3,71.0803,15366.3,76.6547,15368.9,81.1792 C15371.5,85.7037,15376.4,88.4909,15381.6,88.4909 C15381.6,88.4909,15464.8,88.4909,15464.8,88.4909 C15465.6,88.4909,15466.5,88.4162,15467.3,88.2713 C15468.3,88.4164,15469.3,88.4909,15470.3,88.4909 C15470.3,88.4909,15586.8,88.4909,15586.8,88.4909 C15594.1,88.4909,15600.8,84.5888,15604.5,78.2545 C15608.2,71.9202,15608.2,64.1161,15604.5,57.7819 C15604.5,57.7819,15546.3,-43.0859,15546.3,-43.0859 C15542.6,-49.4201,15535.9,-53.3222,15528.5,-53.3222 C15521.2,-53.3222,15514.5,-49.4201,15510.8,-43.0859 C15510.8,-43.0859,15481.4,7.83079,15481.4,7.83079 C15481.4,7.83079,15481.4,7.81074,15481.4,7.81074 z"/> </defs> <use xlink:href="#16" style="fill:#ebf2ff;fill-opacity:1;fill-rule:evenodd;opacity:1;stroke:none;"/> </g> </defs> <use xlink:href="#15"/> <defs> <title>Path</title> <g id="17"> <defs> <path id="18" d="M15424.2,-83.0968 C15434.7,-83.0968,15443.2,-74.6038,15443.2,-64.1271 C15443.2,-53.6505,15434.7,-45.1575,15424.2,-45.1575 C15413.8,-45.1575,15405.3,-53.6505,15405.3,-64.1271 C15405.3,-74.6038,15413.8,-83.0968,15424.2,-83.0968 z"/> </defs> <use xlink:href="#18" style="fill:#ebf2ff;fill-opacity:1;fill-rule:evenodd;opacity:1;stroke:none;"/> </g> </defs> <use xlink:href="#17"/> </g> </g> <defs> <title>Smart Rectangle Copy</title> <g id="19"> <defs> <path id="20" d="M16089.7,-258.712 C16089.7,-244.045,16077.8,-232.154,16063.1,-232.154 C16063.1,-232.154,15356.9,-232.154,15356.9,-232.154 C15342.2,-232.154,15330.3,-244.045,15330.3,-258.712 C15330.3,-273.379,15342.2,-285.269,15356.9,-285.269 C15356.9,-285.269,16063.1,-285.269,16063.1,-285.269 C16077.8,-285.269,16089.7,-273.379,16089.7,-258.712 z"/> </defs> <use xlink:href="#20" style="fill:#001838;fill-opacity:1;fill-rule:nonzero;opacity:1;stroke:none;"/> </g> </defs> <use xlink:href="#19"/> <defs> <title> Horseshoe</title> <g id="21"> <defs> <path id="22" d="M15568.7,-258.067 C15568.7,-259.624,15568.7,-261.181,15568.7,-262.738 C15568.7,-264.369,15567.4,-265.699,15565.8,-265.696 C15564.1,-265.699,15562.8,-264.369,15562.8,-262.738 C15562.8,-261.181,15562.8,-259.624,15562.8,-258.067 C15562.2,-258.067,15561.5,-258.067,15560.9,-258.067 C15560.9,-259.624,15560.9,-261.181,15560.9,-262.738 C15560.9,-265.406,15563.1,-267.562,15565.8,-267.564 C15568.4,-267.562,15570.6,-265.406,15570.6,-262.738 C15570.6,-261.181,15570.6,-259.624,15570.6,-258.067 C15570,-258.067,15569.3,-258.067,15568.7,-258.067 z"/> </defs> <use xlink:href="#22" style="fill:#6280aa;fill-opacity:1;fill-rule:nonzero;opacity:1;stroke:none;"/> </g> </defs> <use xlink:href="#21"/> <defs> <title>Smart Rectangle</title> <g id="23"> <defs> <path id="24" d="M15573.1,-255.159 C15573.1,-252.232,15570.7,-249.859,15567.8,-249.859 C15567.8,-249.859,15563.7,-249.859,15563.7,-249.859 C15560.8,-249.859,15558.4,-252.232,15558.4,-255.159 C15558.4,-255.159,15558.4,-255.759,15558.4,-255.759 C15558.4,-258.686,15560.8,-261.059,15563.7,-261.059 C15563.7,-261.059,15567.8,-261.059,15567.8,-261.059 C15570.7,-261.059,15573.1,-258.686,15573.1,-255.759 C15573.1,-255.759,15573.1,-255.159,15573.1,-255.159 z"/> </defs> <use xlink:href="#24" style="fill:#ebf2ff;fill-opacity:1;fill-rule:nonzero;opacity:1;stroke:none;"/> </g> </defs> <use xlink:href="#23"/> <defs> <title>Smart Rectangle</title> <g id="25"> <defs> <path id="26" d="M15771.6,-258.712 C15771.6,-253.823,15767.7,-249.859,15762.8,-249.859 C15762.8,-249.859,15590.8,-249.859,15590.8,-249.859 C15585.9,-249.859,15581.9,-253.823,15581.9,-258.712 C15581.9,-263.601,15585.9,-267.564,15590.8,-267.564 C15590.8,-267.564,15762.8,-267.564,15762.8,-267.564 C15767.7,-267.564,15771.6,-263.601,15771.6,-258.712 z"/> </defs> <use xlink:href="#26" style="fill:#6280aa;fill-opacity:1;fill-rule:nonzero;opacity:0.28;stroke:none;"/> </g> </defs> <use xlink:href="#25"/> <defs> <title>Smart Rectangle Copy</title> <g id="27"> <defs> <path id="28" d="M15851.3,-258.712 C15851.3,-253.823,15847.3,-249.859,15842.4,-249.859 C15842.4,-249.859,15809.6,-249.859,15809.6,-249.859 C15804.7,-249.859,15800.7,-253.823,15800.7,-258.712 C15800.7,-263.601,15804.7,-267.564,15809.6,-267.564 C15809.6,-267.564,15842.4,-267.564,15842.4,-267.564 C15847.3,-267.564,15851.3,-263.601,15851.3,-258.712 z"/> </defs> <use xlink:href="#28" style="fill:#6280aa;fill-opacity:1;fill-rule:nonzero;opacity:0.28;stroke:none;"/> </g> </defs> <use xlink:href="#27"/> <defs> <title>Path</title> <g id="29"> <defs> <path id="30" d="M15786.2,-267.564 C15791.1,-267.564,15795,-263.601,15795,-258.712 C15795,-253.823,15791.1,-249.859,15786.2,-249.859 C15781.3,-249.859,15777.3,-253.823,15777.3,-258.712 C15777.3,-263.601,15781.3,-267.564,15786.2,-267.564 z"/> </defs> <use xlink:href="#30" style="fill:#6280aa;fill-opacity:1;fill-rule:evenodd;opacity:0.28;stroke:none;"/> </g> </defs> <use xlink:href="#29"/> <defs> <title>Smart Rectangle</title> <g id="31"> <defs> <path id="32" d="M15858.6,374.917 C15858.6,376.574,15857.2,377.917,15855.6,377.917 C15855.6,377.917,15564.4,377.917,15564.4,377.917 C15562.8,377.917,15561.4,376.574,15561.4,374.917 C15561.4,374.917,15561.4,374.314,15561.4,374.314 C15561.4,372.657,15562.8,371.314,15564.4,371.314 C15564.4,371.314,15855.6,371.314,15855.6,371.314 C15857.2,371.314,15858.6,372.657,15858.6,374.314 C15858.6,374.314,15858.6,374.917,15858.6,374.917 z"/> </defs> <use xlink:href="#32" style="fill:#ebf2ff;fill-opacity:1;fill-rule:nonzero;opacity:1;stroke:none;"/> </g> </defs> <use xlink:href="#31"/> <defs> <title>Smart Rectangle Copy</title> <g id="33"> <defs> <path id="34" d="M15858.6,249.577 C15858.6,249.577,15561.4,249.577,15561.4,249.577 C15561.4,249.577,15561.4,246.276,15561.4,246.276 C15561.4,246.276,15858.6,246.276,15858.6,246.276 C15858.6,246.276,15858.6,249.577,15858.6,249.577 z"/> </defs> <use xlink:href="#34" style="fill:#ebf2ff;fill-opacity:1;fill-rule:nonzero;opacity:1;stroke:none;"/> </g> </defs> <use xlink:href="#33"/> <defs> <title>Shape 152</title> <g id="35"> <defs> <path id="36" d="M15223.3,247.394 C15215.4,243.716,15210,235.769,15210,226.467 C15210,226.467,15210,-332.563,15210,-332.563 C15210,-345.378,15220.3,-355.624,15233.1,-355.673 C15233.1,-355.673,16186.9,-355.673,16186.9,-355.673 C16199.7,-355.624,16210,-345.378,16210,-332.563 C16210,-332.563,16210,226.467,16210,226.467 C16210,235.769,16204.6,243.716,16196.7,247.394 C16196.7,247.394,15223.3,247.394,15223.3,247.394 z M16165.1,-283.106 C16165.1,-141.609,16165.1,-0.111737,16165.1,141.386 C16165.1,156.805,16152.5,169.467,16137,169.411 C16137,169.411,15283,169.411,15283,169.411 C15267.5,169.467,15254.9,156.805,15254.9,141.386 C15254.9,-0.111593,15254.9,-141.609,15254.9,-283.107 C15254.9,-298.525,15267.5,-311.187,15283,-311.132 C15283,-311.132,16137,-311.132,16137,-311.132 C16152.5,-311.187,16165.1,-298.525,16165.1,-283.106 z"/> </defs> <use xlink:href="#36" style="fill:#001838;fill-opacity:1;fill-rule:evenodd;opacity:1;stroke:none;"/> </g> </defs> <use xlink:href="#35"/> <defs> <title>Shape 146</title> <g id="37"> <defs> <path id="38" d="M15561.2,263.59 C15561.2,263.59,15561.2,385.327,15561.2,385.327 C15561.2,388.198,15563,390.641,15565.6,391.55 C15567.7,389.727,15570.5,388.628,15573.6,388.628 C15573.6,388.628,15845.9,388.628,15845.9,388.628 C15849,388.628,15851.9,389.775,15854.1,391.67 C15856.8,390.874,15858.8,388.335,15858.8,385.327 C15858.8,385.327,15858.8,263.59,15858.8,263.59 C15858.8,263.59,15561.2,263.59,15561.2,263.59 z"/> </defs> <use xlink:href="#38" style="fill:#001838;fill-opacity:1;fill-rule:evenodd;opacity:1;stroke:none;"/> </g> </defs> <defs> <g id="39"> <filter filterUnits="userSpaceOnUse" x="15548.2" y="250.59" width="323.633" height="154.08" id="40"> <feGaussianBlur stdDeviation="5.31923"/> <feComponentTransfer> <feFuncA type="linear" slope="1.0101"/> </feComponentTransfer> <feColorMatrix type="matrix" values="0 0 0 0 0.623529 0 0 0 0 0.623529 0 0 0 0 0.623529 0 0 0 1 0" style="color-interpolation-filters:sRGB;"/> </filter> <use xlink:href="#37" style="filter:url(#40);mix-blend-mode:darken;opacity:1;"/> <use xlink:href="#37"/> </g> </defs> <use xlink:href="#39"/> <defs> <title>Path</title> <g id="41"> <defs> <path id="42" d="M15710,-336.505 C15711.8,-336.505,15713.3,-335.027,15713.3,-333.204 C15713.3,-331.381,15711.8,-329.903,15710,-329.903 C15708.2,-329.903,15706.7,-331.381,15706.7,-333.204 C15706.7,-335.027,15708.2,-336.505,15710,-336.505 z"/> </defs> <use xlink:href="#42" style="fill:#ebf2ff;fill-opacity:1;fill-rule:evenodd;opacity:1;stroke:none;"/> </g> </defs> <use xlink:href="#41"/> <defs> <title>Smart Rectangle Copy</title> <g id="43"> <defs> <path id="44" d="M15866.8,418.34 C15866.8,427.913,15859.1,435.673,15849.5,435.673 C15849.5,435.673,15570.5,435.673,15570.5,435.673 C15560.9,435.673,15553.2,427.913,15553.2,418.34 C15553.2,408.768,15560.9,401.008,15570.5,401.008 C15570.5,401.008,15849.5,401.008,15849.5,401.008 C15859.1,401.008,15866.8,408.768,15866.8,418.34 z"/> </defs> <use xlink:href="#44" style="fill:#001838;fill-opacity:1;fill-rule:nonzero;opacity:1;stroke:none;"/> </g> </defs> <use xlink:href="#43"/> </g> </svg>