<?xml version='1.0' encoding='utf-8'?>
<svg xmlns="http://www.w3.org/2000/svg" viewBox="0 0 800 800"><defs><linearGradient id="a" x1="409.11" y1="441.11" x2="195.98" y2="654.23" gradientUnits="userSpaceOnUse"><stop offset="0"/><stop offset="1" stop-opacity="0"/></linearGradient></defs><circle cx="400" cy="400" r="400" style="fill:#1c8adb"/><circle cx="400" cy="400" r="400" style="fill:none"/><path d="M343.36,797.53,620.83,520.06a111.66,111.66,0,0,0-46.89-77.6h0q-2.34-1.63-4.79-3.17l-.06,0a110.29,110.29,0,0,0-10-5.53l-.49-.24q-2.25-1.1-4.56-2.08l-.75-.32-1.22-.5a96.21,96.21,0,0,1-48.27,23.06l38.48-38.46a78,78,0,0,0,8.62-9.71.86.86,0,0,0,.07-.1,78.49,78.49,0,0,0-35.92-120.61l0,0a78.76,78.76,0,0,0-53.93,0H461c-1.13.42-2.24.86-3.34,1.32l-.39.17c-1,.42-2,.87-3,1.33l-.67.33c-.87.42-1.74.87-2.59,1.32l-1,.53c-.82.45-1.64.92-2.44,1.4l-.83.51c-.9.56-1.8,1.12-2.68,1.72l0,0a78.06,78.06,0,0,0-12.32,10.31l-42.36,42.35A78.43,78.43,0,0,0,329.66,282l-1.35-.31-1.49-.29c-.78-.15-1.56-.29-2.35-.42l-1-.15q-1.64-.24-3.3-.42l-.19,0c-2.62-.26-5.27-.4-8-.4a78.21,78.21,0,0,0-56.26,23.79L14.44,545.11C28.72,704.48,147.85,781.14,343.36,797.53Z" style="opacity:0.42;fill:url(#a)"/><path d="M515.05,284.76l0,0a78.76,78.76,0,0,0-53.93,0H461c-1.13.42-2.24.86-3.34,1.32l-.39.17c-1,.42-2,.87-3,1.33l-.67.33c-.87.42-1.74.87-2.59,1.32l-1,.53c-.82.45-1.64.92-2.44,1.4l-.83.51c-.9.56-1.8,1.12-2.68,1.72l0,0A78.74,78.74,0,0,0,419.06,321l-.06.11c-.54,1-1.06,2-1.56,3-.07.15-.15.3-.22.46-.44.9-.84,1.82-1.24,2.74-.11.25-.23.5-.33.76-.34.79-.65,1.6-1,2.42-.54,1.42-1.06,2.86-1.51,4.32-.7,2.21-1.28,4.44-1.78,6.7,0,.23-.11.45-.16.68-.17.8-.3,1.61-.45,2.41-.09.49-.18,1-.26,1.48s-.17,1.18-.25,1.77c-.1.74-.2,1.47-.28,2.22,0,.4-.07.8-.11,1.21-.09.95-.17,1.9-.22,2.86l0,.76c-.05,1.1-.08,2.21-.08,3.33v.52c0,1.17,0,2.34.09,3.5l0,.51c.06,1.14.14,2.26.25,3.39,0,.21.05.43.07.65.11,1.05.25,2.1.4,3.14,0,.3.09.59.13.88q.23,1.42.51,2.82c.07.38.15.76.23,1.14.18.84.37,1.67.58,2.5.11.47.23.95.36,1.42q.29,1.06.6,2.13c.17.57.35,1.14.53,1.71.29.89.58,1.78.9,2.66a2.47,2.47,0,0,1,.1.29c.38,1,.78,2,1.19,3l.34.82q.61,1.41,1.26,2.79l.42.85q.65,1.33,1.35,2.64l.33.6c.46.83.94,1.66,1.43,2.48.14.23.27.47.42.7.54.89,1.11,1.77,1.68,2.63l.45.66c.61.89,1.23,1.78,1.88,2.64.07.1.16.2.23.31.62.81,1.25,1.61,1.9,2.41.13.16.26.33.4.49.68.82,1.37,1.62,2.08,2.41l.55.6c.93,1,1.9,2,2.88,3,.74.72,1.48,1.44,2.25,2.14.36.33.75.64,1.12,1,.63.55,1.25,1.1,1.9,1.63l1.15.91c.67.52,1.34,1,2,1.55l1.1.78c.73.52,1.48,1,2.23,1.54a78.46,78.46,0,0,0,86.81-.36l.57-.39c.91-.63,1.82-1.26,2.71-1.92h0a78.76,78.76,0,0,0,15.9-15.89.86.86,0,0,0,.07-.1,78.49,78.49,0,0,0-35.92-120.61Z" style="fill:#fff"/><path d="M573.94,442.46h0q-2.34-1.63-4.79-3.17l-.06,0a110.29,110.29,0,0,0-10-5.53l-.49-.24q-2.25-1.1-4.56-2.08l-.75-.32-1.22-.5a96.27,96.27,0,0,1-128.06,0l-.77.32c-.85.35-1.69.71-2.53,1.08l-1.16.52c-1.14.52-2.27,1.06-3.38,1.62l-1.28.66c-.73.38-1.46.76-2.18,1.15l-1.52.85-1.91,1.1c-.5.3-1,.59-1.5.9-.79.48-1.57,1-2.34,1.48s-1.47,1-2.19,1.46c-.53.36-1.06.72-1.58,1.09s-1.15.82-1.72,1.24-.88.65-1.32,1-1.18.9-1.76,1.36l-1,.81c-1.23,1-2.45,2-3.63,3.07l-.68.6c-.65.58-1.28,1.17-1.92,1.77l-.77.73-1.92,1.87a8,8,0,0,1-1.28,1.18,16.66,16.66,0,0,0-4.68,5.23,12.9,12.9,0,0,1-.92,1.18c-.65.78-1.29,1.58-1.92,2.39a1.71,1.71,0,0,0-.11.14,104.69,104.69,0,0,0-7.4,10.72l-.07.12q-3.39,5.73-6.2,11.76h0a111.36,111.36,0,0,0-9.08,32.08H620.83A111.66,111.66,0,0,0,573.94,442.46Z" style="fill:#fff"/><path d="M354.75,424.3h0l.08-.06c1.07-.7,2.11-1.41,3.13-2.15.5-.36,1-.73,1.46-1.1s1.07-.8,1.58-1.21,1.24-1,1.85-1.54c.34-.29.69-.57,1-.86.71-.62,1.39-1.26,2.07-1.9l.64-.6c.74-.72,1.46-1.46,2.17-2.2l.37-.38c.77-.81,1.51-1.64,2.23-2.47l.17-.19c.76-.89,1.5-1.79,2.22-2.71l0-.05A78.48,78.48,0,0,0,329.66,282l-1.35-.31-1.49-.29c-.78-.15-1.56-.29-2.35-.42l-1-.15q-1.64-.24-3.3-.42l-.19,0c-2.62-.26-5.27-.4-8-.4A78.49,78.49,0,1,0,354.75,424.3Z" style="fill:#fff"/><path d="M376,430.61A96.27,96.27,0,0,1,248,430.55l-.84.35c-.85.35-1.69.71-2.53,1.08l-1.16.52q-1.71.78-3.39,1.62l-1.28.66-2.17,1.15-1.52.85-1.91,1.1c-.5.3-1,.59-1.51.9-.78.48-1.56,1-2.33,1.48s-1.47,1-2.19,1.46c-.53.36-1.06.72-1.58,1.09s-1.15.82-1.72,1.24-.88.65-1.32,1l-1.77,1.36-1,.81c-1.25,1-2.47,2.05-3.68,3.11l-.63.56q-1,.87-1.92,1.77l-.77.73c-.65.62-1.28,1.24-1.92,1.87l-.42.43q-3.21,3.27-6.16,6.8l-.3.36c-.65.78-1.29,1.58-1.92,2.39a1.83,1.83,0,0,1-.13.16,111.19,111.19,0,0,0-7.44,10.8h0A111.14,111.14,0,0,0,188.25,488h0a111.36,111.36,0,0,0-9.08,32.08H331.09l.38-3a135.76,135.76,0,0,1,11-39l.09-.2h0a136.33,136.33,0,0,1,7.38-14h0l0-.06,0-.05h0a136.68,136.68,0,0,1,9-13.11l.16-.21c.76-1,1.55-1.95,2.34-2.9h0l.29-.35.07-.08c2.37-2.84,4.89-5.62,7.46-8.23l.06-.06.51-.53c.75-.74,1.52-1.5,2.31-2.26l.92-.87c.72-.67,1.49-1.39,2.32-2.13.21-.2.43-.39.65-.58l.13-.11c.41-.37.84-.73,1.26-1.09l-.38-.16Z" style="fill:#fff"/></svg>