<?xml version="1.0" encoding="UTF-8"?>
<svg width="383.58mm" height="237.07mm" version="1.1" viewBox="0 0 1359.1486 839.99999" xmlns="http://www.w3.org/2000/svg">
 <g transform="translate(328.57 -983.79)">
  <rect x="-328.57" y="983.79" width="1359.1" height="840" fill="#fff"/>
  <g transform="translate(-39.926 1063.5)">
   <rect x="152.53" y="83.626" width="72.731" height="354.56" ry="42.426" fill="#29b6f6"/>
   <rect x="287.22" y="151.31" width="72.731" height="227.28" ry="36.365" fill="#f44336"/>
   <rect x="421.91" y="59.382" width="72.731" height="413.15" ry="49.437" fill="#ffeb3b"/>
   <rect x="556.59" y="164.45" width="72.731" height="200.33" ry="36.365" fill="#66bb6a"/>
  </g>
  <rect transform="scale(1,-1)" x="-97.505" y="-1698.4" width="897.02" height="52.528" ry="12.122" fill="#eceff1"/>
  <g transform="matrix(.47231 0 0 .49754 633.64 1577.8)" fill="#29b6f6">
   <path d="m318 187c0-1.657-1.343-3-3-3s-3 1.343-3 3c0 12.15-9.85 22-22 22s-22-9.85-22-22c0-1.657-1.343-3-3-3s-3 1.343-3 3c0 14.45 10.947 26.341 25 27.838v5.16h-8c-1.657 0-3 1.343-3 3s1.343 3 3 3h22c1.657 0 3-1.343 3-3s-1.343-3-3-3h-8v-5.162c14.05-1.5 25-13.39 25-27.84z"/>
   <path d="m290 154c-9.941 0-18 8.059-18 18v14c0 9.941 8.059 18 18 18s18-8.059 18-18v-14c0-9.94-8.06-18-18-18z"/>
   <path d="m272 174h12v-4h-12v4zm0 7h12v-4h-12v4zm0 7h12v-4h-12v4zm24-18v4h12v-4h-12zm0 11h12v-4h-12v4zm0 7h12v-4h-12v4z"/>
  </g>
 </g>
</svg>
